<svg xmlns="http://www.w3.org/2000/svg" xmlns:xlink="http://www.w3.org/1999/xlink" width="500" zoomAndPan="magnify" viewBox="0 0 375 374.999991" height="500" preserveAspectRatio="xMidYMid meet" version="1.0"><defs><clipPath id="1e10ed7c07"><path d="M 37.5 213 L 337.5 213 L 337.5 357.898438 L 37.5 357.898438 Z M 37.5 213 " clip-rule="nonzero"/></clipPath><clipPath id="851f74d50d"><path d="M 82 17.398438 L 300 17.398438 L 300 283 L 82 283 Z M 82 17.398438 " clip-rule="nonzero"/></clipPath></defs><rect x="-37.5" width="450" fill="#ffffff" y="-37.499999" height="449.999989" fill-opacity="1"/><rect x="-37.5" width="450" fill="#e1d0b4" y="-37.499999" height="449.999989" fill-opacity="1"/><g clip-path="url(#1e10ed7c07)"><path fill="#ffffff" d="M 208.175781 239.992188 C 206.175781 241.246094 203.996094 241.839844 201.636719 241.773438 C 200.386719 241.320312 201.289062 239.328125 204.292969 237.917969 C 205.402344 237.316406 206.582031 236.945312 207.832031 236.804688 C 209.085938 236.667969 210.316406 236.773438 211.527344 237.121094 C 212.351562 237.730469 210.757812 238.742188 208.175781 239.992188 Z M 337.238281 213.398438 C 337.144531 215.785156 336.992188 218.171875 336.78125 220.550781 C 336.574219 222.933594 336.308594 225.308594 335.984375 227.675781 C 335.660156 230.042969 335.28125 232.402344 334.84375 234.753906 C 334.410156 237.101562 333.917969 239.441406 333.371094 241.765625 C 332.824219 244.09375 332.21875 246.40625 331.5625 248.703125 C 330.902344 251 330.191406 253.28125 329.421875 255.546875 C 328.65625 257.808594 327.832031 260.054688 326.957031 262.277344 C 326.082031 264.5 325.15625 266.703125 324.175781 268.882812 C 323.195312 271.0625 322.164062 273.21875 321.082031 275.347656 C 319.996094 277.480469 318.863281 279.582031 317.679688 281.660156 C 316.496094 283.734375 315.261719 285.78125 313.980469 287.800781 C 312.699219 289.816406 311.371094 291.800781 309.992188 293.753906 C 308.617188 295.710938 307.191406 297.628906 305.722656 299.515625 C 304.253906 301.398438 302.742188 303.25 301.183594 305.0625 C 299.628906 306.875 298.027344 308.652344 296.386719 310.386719 C 294.742188 312.125 293.058594 313.820312 291.335938 315.476562 C 289.613281 317.132812 287.851562 318.746094 286.050781 320.320312 C 284.25 321.890625 282.414062 323.417969 280.539062 324.902344 C 278.664062 326.386719 276.757812 327.824219 274.816406 329.21875 C 272.871094 330.609375 270.898438 331.953125 268.890625 333.253906 C 266.882812 334.550781 264.847656 335.800781 262.78125 337 C 260.714844 338.203125 258.621094 339.351562 256.5 340.453125 C 254.375 341.554688 252.230469 342.601562 250.058594 343.601562 C 247.886719 344.597656 245.691406 345.542969 243.472656 346.4375 C 241.257812 347.328125 239.019531 348.167969 236.761719 348.953125 C 234.503906 349.738281 232.230469 350.46875 229.9375 351.148438 C 227.644531 351.824219 225.339844 352.445312 223.015625 353.011719 C 220.695312 353.578125 218.359375 354.089844 216.015625 354.542969 C 213.667969 355 211.3125 355.398438 208.945312 355.738281 C 206.582031 356.082031 204.207031 356.367188 201.828125 356.59375 C 199.449219 356.824219 197.066406 356.996094 194.679688 357.109375 C 192.292969 357.226562 189.902344 357.28125 187.511719 357.28125 C 185.121094 357.28125 182.734375 357.226562 180.347656 357.113281 C 177.960938 356.996094 175.574219 356.828125 173.195312 356.597656 C 170.816406 356.371094 168.445312 356.085938 166.078125 355.742188 C 163.714844 355.402344 161.359375 355.003906 159.011719 354.550781 C 156.664062 354.09375 154.332031 353.585938 152.007812 353.019531 C 149.6875 352.453125 147.378906 351.832031 145.085938 351.15625 C 142.792969 350.480469 140.519531 349.746094 138.261719 348.960938 C 136.003906 348.175781 133.765625 347.339844 131.550781 346.445312 C 129.332031 345.554688 127.136719 344.609375 124.964844 343.613281 C 122.792969 342.613281 120.644531 341.566406 118.523438 340.464844 C 116.402344 339.363281 114.308594 338.214844 112.242188 337.015625 C 110.175781 335.8125 108.136719 334.566406 106.128906 333.265625 C 104.121094 331.96875 102.148438 330.625 100.207031 329.230469 C 98.261719 327.839844 96.355469 326.402344 94.480469 324.917969 C 92.605469 323.433594 90.769531 321.90625 88.96875 320.335938 C 87.167969 318.765625 85.40625 317.152344 83.679688 315.496094 C 81.957031 313.839844 80.273438 312.144531 78.632812 310.40625 C 76.988281 308.671875 75.390625 306.894531 73.832031 305.082031 C 72.273438 303.269531 70.761719 301.421875 69.292969 299.535156 C 67.824219 297.648438 66.398438 295.730469 65.023438 293.777344 C 63.644531 291.824219 62.316406 289.839844 61.03125 287.820312 C 59.75 285.804688 58.515625 283.757812 57.332031 281.683594 C 56.148438 279.605469 55.015625 277.503906 53.929688 275.371094 C 52.847656 273.242188 51.816406 271.085938 50.832031 268.90625 C 49.851562 266.726562 48.925781 264.527344 48.050781 262.300781 C 47.175781 260.078125 46.351562 257.832031 45.585938 255.570312 C 44.816406 253.308594 44.105469 251.027344 43.445312 248.730469 C 42.785156 246.429688 42.183594 244.121094 41.636719 241.792969 C 41.085938 239.464844 40.59375 237.128906 40.15625 234.777344 C 39.722656 232.429688 39.34375 230.070312 39.019531 227.703125 C 38.695312 225.332031 38.429688 222.957031 38.21875 220.578125 C 38.007812 218.195312 37.855469 215.8125 37.761719 213.425781 L 106.613281 213.425781 C 108.050781 215.523438 109.617188 217.679688 111.347656 219.753906 C 109.246094 218.097656 106.96875 216.734375 104.519531 215.664062 C 102.066406 214.589844 99.523438 213.84375 96.878906 213.425781 L 96.558594 216.988281 C 101.273438 217.785156 105.492188 219.683594 109.21875 222.679688 C 103.878906 222.191406 98.675781 222.820312 93.609375 224.566406 L 94.910156 227.917969 C 98.082031 226.828125 101.34375 226.234375 104.691406 226.128906 C 108.042969 226.023438 111.332031 226.417969 114.566406 227.304688 C 114.449219 229.226562 114.683594 231.105469 115.265625 232.9375 C 115.847656 234.773438 116.742188 236.441406 117.941406 237.945312 L 118.128906 238.183594 L 117.835938 238.128906 C 121.097656 234.796875 124.839844 232.140625 129.058594 230.152344 C 125.558594 233.25 122.296875 236.585938 119.273438 240.152344 C 120.125 241.1875 121.105469 242.253906 122.199219 243.34375 L 121 242.09375 C 124.300781 238.660156 128.09375 235.914062 132.382812 233.847656 C 128.914062 236.941406 125.667969 240.257812 122.648438 243.792969 C 123.234375 244.351562 123.847656 244.9375 124.5625 245.578125 C 127.800781 242.253906 131.515625 239.59375 135.707031 237.597656 C 132.375 240.597656 129.226562 243.78125 126.265625 247.144531 C 126.90625 247.730469 127.597656 248.316406 128.3125 248.925781 L 129.882812 250.230469 L 128.3125 248.769531 C 131.417969 245.613281 134.964844 243.078125 138.953125 241.160156 C 135.792969 244.015625 132.789062 247.019531 129.9375 250.175781 L 132.089844 251.933594 C 135.085938 249 138.484375 246.644531 142.277344 244.859375 C 140.148438 247.011719 136.453125 250.175781 133.765625 253.234375 L 132.382812 252.171875 L 133.765625 253.261719 L 136.078125 255.070312 C 138.910156 252.421875 142.074219 250.257812 145.574219 248.582031 C 143.632812 250.601562 140.253906 253.394531 137.59375 256.292969 L 140.015625 258.101562 C 142.65625 255.738281 145.582031 253.808594 148.792969 252.304688 C 147.011719 254.140625 144.085938 256.613281 141.613281 259.246094 L 140.09375 258.15625 L 141.585938 259.246094 C 142.4375 259.882812 143.3125 260.496094 144.246094 261.082031 C 146.675781 259.03125 149.335938 257.335938 152.222656 256 C 150.625 257.652344 148.128906 259.804688 145.8125 262.144531 L 145.203125 261.71875 L 145.8125 262.144531 L 148.605469 264.007812 L 148.820312 264.007812 L 148.605469 264.007812 C 150.746094 262.300781 153.0625 260.871094 155.546875 259.726562 C 154.164062 261.132812 152.089844 262.941406 150.042969 265.042969 L 149.855469 265.042969 C 149.917969 265.03125 149.980469 265.03125 150.042969 265.042969 L 153.125 266.933594 L 153.394531 267.066406 C 153.296875 267.035156 153.207031 266.992188 153.125 266.933594 C 154.917969 265.589844 156.832031 264.453125 158.871094 263.527344 C 157.726562 264.699219 156.210938 266.1875 154.457031 267.703125 L 154.242188 267.382812 L 154.535156 267.542969 C 160.734375 271.082031 165.734375 272.863281 167.40625 271.320312 C 172.089844 266.640625 148.527344 235.578125 139.113281 226.109375 C 132.996094 219.992188 127.597656 217.890625 123.316406 218.421875 C 122.679688 216.792969 122.210938 215.117188 121.90625 213.398438 L 164.855469 213.398438 C 164.363281 216.21875 164.273438 219.054688 164.582031 221.90625 C 164.894531 224.753906 165.597656 227.503906 166.691406 230.152344 C 168.550781 227.171875 170.359375 224.140625 172.007812 221.058594 C 173.257812 218.601562 174.367188 216.085938 175.332031 213.503906 L 176.050781 213.503906 C 175.257812 216.21875 174.308594 218.878906 173.207031 221.480469 C 171.769531 224.859375 170.09375 228.15625 168.367188 231.402344 C 170.191406 230.550781 171.902344 229.507812 173.496094 228.273438 C 175.09375 227.039062 176.53125 225.644531 177.816406 224.089844 C 179.097656 222.535156 180.195312 220.855469 181.105469 219.058594 C 182.015625 217.257812 182.714844 215.378906 183.203125 213.425781 L 239.691406 213.425781 C 235.757812 215.816406 231.628906 217.792969 227.296875 219.355469 C 230.464844 221.433594 233.921875 222.746094 237.671875 223.289062 C 241.0625 223.761719 244.449219 223.710938 247.824219 223.136719 C 251.203125 222.558594 254.414062 221.484375 257.457031 219.914062 C 255.277344 227.519531 254.160156 234.433594 253.414062 237.464844 L 253.761719 237.253906 C 255.226562 236.277344 256.617188 235.207031 257.933594 234.035156 C 257.585938 233.707031 257.308594 233.324219 257.101562 232.890625 C 256.898438 232.460938 256.777344 232.003906 256.746094 231.527344 C 256.714844 231.046875 256.769531 230.578125 256.914062 230.121094 C 257.054688 229.664062 257.277344 229.25 257.578125 228.875 C 257.878906 228.503906 258.238281 228.199219 258.65625 227.960938 C 259.070312 227.722656 259.515625 227.570312 259.992188 227.5 C 260.464844 227.429688 260.9375 227.453125 261.402344 227.558594 C 261.871094 227.667969 262.300781 227.859375 262.695312 228.128906 C 262.953125 228.339844 263.195312 228.570312 263.414062 228.820312 L 264.449219 227.707031 C 264.078125 227.554688 263.722656 227.371094 263.386719 227.148438 C 263.121094 226.972656 262.871094 226.773438 262.640625 226.550781 C 262.414062 226.328125 262.207031 226.085938 262.019531 225.824219 C 261.835938 225.5625 261.675781 225.289062 261.542969 224.996094 C 261.410156 224.707031 261.304688 224.40625 261.230469 224.097656 C 261.152344 223.785156 261.105469 223.472656 261.085938 223.152344 C 261.070312 222.832031 261.082031 222.515625 261.121094 222.199219 C 261.164062 221.882812 261.234375 221.570312 261.332031 221.269531 C 261.429688 220.964844 261.558594 220.671875 261.710938 220.390625 C 261.886719 220.125 262.089844 219.878906 262.3125 219.652344 C 262.535156 219.421875 262.777344 219.21875 263.039062 219.035156 C 263.300781 218.851562 263.578125 218.695312 263.871094 218.566406 C 264.164062 218.433594 264.464844 218.332031 264.773438 218.261719 C 265.085938 218.1875 265.398438 218.144531 265.71875 218.128906 C 266.039062 218.113281 266.355469 218.132812 266.671875 218.175781 C 266.988281 218.222656 267.296875 218.296875 267.597656 218.402344 C 267.898438 218.507812 268.191406 218.636719 268.464844 218.796875 C 269.175781 219.171875 269.753906 219.695312 270.195312 220.367188 C 270.585938 219.761719 270.957031 219.152344 271.3125 218.53125 C 270.472656 218.546875 269.683594 218.351562 268.945312 217.945312 C 268.519531 217.722656 268.132812 217.445312 267.78125 217.117188 C 267.429688 216.789062 267.132812 216.421875 266.878906 216.011719 C 266.628906 215.601562 266.4375 215.164062 266.304688 214.703125 C 266.171875 214.242188 266.105469 213.769531 266.101562 213.292969 L 275.089844 213.292969 C 274.824219 213.929688 274.53125 214.59375 274.210938 215.207031 C 269.902344 226.828125 253.386719 240.125 252.777344 238.820312 C 252.457031 240.046875 272.617188 236.453125 281.074219 217.945312 C 281.792969 216.394531 282.398438 214.800781 282.878906 213.15625 Z M 238.363281 251.109375 C 236.980469 250.710938 235.222656 250.203125 233.546875 249.617188 C 233.660156 251.488281 233.660156 253.359375 233.546875 255.230469 L 233.28125 258.34375 L 231.339844 255.894531 C 229.8125 253.964844 228.386719 251.960938 227.058594 249.886719 C 225.363281 251.253906 223.589844 252.511719 221.742188 253.660156 L 219.746094 254.859375 L 219.746094 252.542969 C 219.90625 250.09375 220.234375 247.664062 220.730469 245.257812 C 217.40625 245.042969 213.628906 244.351562 213.441406 244.328125 L 210.359375 243.769531 L 213.015625 242.066406 C 214.601562 241.074219 216.242188 240.1875 217.9375 239.40625 C 215.4375 237.144531 213.070312 234.511719 212.617188 234.085938 C 211.605469 234.007812 210.589844 233.992188 209.570312 234.046875 C 208.554688 234.101562 207.546875 234.226562 206.546875 234.417969 C 205.546875 234.609375 204.566406 234.867188 203.601562 235.191406 C 202.636719 235.515625 201.695312 235.902344 200.785156 236.355469 C 199.871094 236.804688 198.992188 237.316406 198.148438 237.886719 C 197.304688 238.457031 196.503906 239.078125 195.746094 239.757812 C 194.984375 240.433594 194.273438 241.160156 193.613281 241.933594 C 192.953125 242.710938 192.347656 243.523438 191.796875 244.378906 C 185.199219 255.335938 190.171875 270.441406 202.910156 278.101562 C 215.648438 285.761719 231.3125 283.074219 237.882812 272.117188 C 238.789062 270.523438 239.488281 268.84375 239.980469 267.074219 C 240.46875 265.308594 240.734375 263.507812 240.777344 261.671875 C 240.816406 259.839844 240.632812 258.027344 240.226562 256.242188 C 239.816406 254.453125 239.195312 252.742188 238.363281 251.109375 Z M 241.234375 250.601562 C 238.886719 248.292969 236.414062 246.128906 233.8125 244.113281 C 236.042969 243.269531 238.179688 242.230469 240.222656 241.003906 C 237.472656 240.449219 234.695312 240.058594 231.898438 239.832031 C 232.519531 237.96875 232.945312 236.0625 233.175781 234.113281 C 231.242188 234.90625 229.40625 235.878906 227.671875 237.039062 C 226.089844 234.363281 224.316406 231.820312 222.351562 229.40625 C 222.238281 231.792969 222.335938 234.167969 222.644531 236.535156 C 219.589844 235.1875 216.46875 234.015625 213.285156 233.023438 C 215.402344 235.390625 217.652344 237.625 220.039062 239.726562 C 217.75 240.644531 215.570312 241.769531 213.496094 243.101562 C 216.363281 243.628906 219.253906 243.957031 222.164062 244.085938 C 221.441406 246.878906 220.996094 249.714844 220.835938 252.597656 C 223.101562 251.246094 225.230469 249.703125 227.21875 247.96875 C 228.695312 250.464844 230.335938 252.851562 232.136719 255.125 C 232.371094 252.667969 232.371094 250.214844 232.136719 247.757812 C 235.113281 248.882812 238.148438 249.832031 241.234375 250.601562 Z M 117.542969 221.269531 C 115.914062 218.820312 114.550781 216.230469 113.449219 213.503906 L 110.789062 213.503906 C 112.707031 216.207031 114.824219 218.742188 117.144531 221.109375 Z M 196.078125 243.820312 C 195.429688 244.574219 194.847656 245.375 194.320312 246.214844 C 193.0625 248.351562 192.261719 250.648438 191.921875 253.105469 C 191.578125 255.5625 191.722656 257.992188 192.351562 260.390625 C 194.269531 268.367188 196.050781 268.367188 195.199219 261.558594 C 194.929688 259.515625 195 257.484375 195.414062 255.464844 C 195.828125 253.445312 196.566406 251.550781 197.621094 249.777344 C 198.207031 248.820312 198.890625 247.933594 199.667969 247.121094 C 200.945312 245.710938 201.367188 244.085938 200.253906 243.261719 C 199.929688 243.058594 199.578125 242.917969 199.207031 242.835938 C 198.832031 242.753906 198.457031 242.742188 198.078125 242.792969 C 197.699219 242.84375 197.339844 242.957031 197 243.132812 C 196.660156 243.308594 196.363281 243.539062 196.101562 243.820312 Z M 118.261719 213.425781 L 117.542969 213.425781 C 117.96875 214.382812 118.449219 215.339844 118.953125 216.269531 C 118.632812 215.3125 118.421875 214.382812 118.261719 213.425781 Z M 118.261719 213.425781 " fill-opacity="1" fill-rule="nonzero"/></g><path fill="#f64b31" d="M 243.945312 167.839844 C 239.46875 166.582031 235.203125 164.804688 231.15625 162.511719 C 227.109375 160.21875 223.394531 157.472656 220.011719 154.277344 C 216.847656 151.246094 214.691406 148.269531 216.660156 143.828125 C 216.828125 143.421875 217.03125 143.03125 217.269531 142.664062 C 217.507812 142.292969 217.773438 141.945312 218.074219 141.621094 C 218.371094 141.300781 218.695312 141.007812 219.046875 140.742188 C 219.398438 140.476562 219.769531 140.242188 220.160156 140.042969 C 220.550781 139.84375 220.957031 139.679688 221.378906 139.554688 C 221.800781 139.425781 222.226562 139.335938 222.664062 139.285156 C 223.101562 139.234375 223.539062 139.21875 223.976562 139.246094 C 224.417969 139.273438 224.851562 139.335938 225.277344 139.4375 C 229.207031 140.625 232.613281 142.679688 235.488281 145.609375 C 235.125 142.710938 235.402344 139.875 236.3125 137.097656 C 236.632812 136.332031 237.066406 135.640625 237.617188 135.023438 C 238.171875 134.40625 238.808594 133.894531 239.53125 133.492188 C 240.253906 133.089844 241.027344 132.816406 241.839844 132.671875 C 242.65625 132.53125 243.472656 132.523438 244.292969 132.65625 C 245.199219 132.824219 246.054688 133.136719 246.855469 133.589844 C 247.660156 134.042969 248.371094 134.613281 248.984375 135.300781 C 249.597656 135.988281 250.082031 136.757812 250.441406 137.609375 C 250.796875 138.457031 251.011719 139.34375 251.074219 140.261719 C 252.242188 149.25 248.148438 159.835938 243.945312 167.839844 Z M 243.945312 167.839844 " fill-opacity="1" fill-rule="nonzero"/><g clip-path="url(#851f74d50d)"><path fill="#212121" d="M 245.410156 88.113281 C 246.125 88.339844 246.855469 88.445312 247.605469 88.425781 C 248.355469 88.410156 249.082031 88.269531 249.785156 88.011719 C 250.488281 87.75 251.132812 87.382812 251.710938 86.910156 C 252.292969 86.433594 252.78125 85.878906 253.175781 85.238281 C 254.265625 85.71875 255.398438 86.039062 256.578125 86.195312 C 257.351562 86.261719 258.121094 86.261719 258.894531 86.195312 C 258.933594 86.855469 259.054688 87.5 259.257812 88.128906 C 259.460938 88.757812 259.738281 89.351562 260.089844 89.910156 C 260.445312 90.464844 260.863281 90.972656 261.34375 91.425781 C 261.824219 91.875 262.355469 92.261719 262.933594 92.578125 C 263.996094 93.296875 265.160156 93.730469 266.433594 93.886719 C 267.703125 94.039062 268.941406 93.898438 270.140625 93.457031 C 270.484375 95.234375 271.09375 96.914062 271.964844 98.5 C 272.835938 100.085938 273.933594 101.496094 275.25 102.738281 C 275.941406 103.433594 276.691406 104.054688 277.507812 104.601562 C 277.253906 106.421875 277.449219 108.195312 278.09375 109.917969 C 279.875 114.730469 284.449219 117.472656 288.28125 116.035156 C 288.71875 115.828125 289.136719 115.578125 289.53125 115.296875 C 289.925781 115.011719 290.292969 114.691406 290.628906 114.339844 C 290.964844 113.988281 291.265625 113.609375 291.53125 113.199219 C 291.800781 112.792969 292.027344 112.367188 292.214844 111.917969 C 292.40625 111.46875 292.550781 111.003906 292.65625 110.53125 C 292.757812 110.054688 292.820312 109.574219 292.835938 109.085938 C 292.851562 108.601562 292.820312 108.117188 292.75 107.632812 C 292.675781 107.152344 292.558594 106.683594 292.402344 106.222656 C 293.289062 105.757812 294.078125 105.164062 294.769531 104.441406 C 299.503906 99.546875 298.4375 90.851562 292.402344 85 C 291.125 83.738281 289.691406 82.695312 288.09375 81.878906 C 286.496094 81.0625 284.8125 80.507812 283.039062 80.210938 C 283 79.011719 282.804688 77.835938 282.453125 76.6875 C 282.101562 75.539062 281.609375 74.457031 280.976562 73.4375 C 280.339844 72.414062 279.585938 71.496094 278.710938 70.675781 C 277.832031 69.851562 276.867188 69.160156 275.804688 68.589844 C 269.609375 64.789062 262.507812 65.238281 259.851562 69.628906 L 259.851562 69.867188 L 258.917969 69.65625 C 253.253906 68.9375 248.28125 72.023438 247.617188 76.542969 C 247.578125 76.898438 247.578125 77.253906 247.617188 77.605469 C 243.921875 76.941406 240.488281 78.5625 239.902344 81.355469 C 239.320312 84.148438 241.578125 87.3125 245.410156 88.113281 Z M 282.800781 101.914062 C 282.148438 102.230469 281.589844 102.664062 281.125 103.21875 C 281.28125 102.671875 281.542969 102.179688 281.910156 101.742188 C 282.277344 101.308594 282.714844 100.964844 283.226562 100.71875 C 283.492188 100.609375 283.761719 100.527344 284.042969 100.476562 C 284.324219 100.421875 284.605469 100.398438 284.890625 100.402344 C 285.175781 100.410156 285.457031 100.441406 285.734375 100.503906 C 286.011719 100.566406 286.28125 100.65625 286.542969 100.773438 C 286.800781 100.890625 287.046875 101.03125 287.277344 101.199219 C 287.511719 101.367188 287.722656 101.554688 287.914062 101.765625 C 288.109375 101.976562 288.277344 102.203125 288.421875 102.445312 C 288.570312 102.691406 288.691406 102.949219 288.785156 103.21875 C 288.898438 103.503906 288.988281 103.792969 289.050781 104.09375 C 288.917969 103.816406 288.761719 103.550781 288.578125 103.304688 C 288.394531 103.054688 288.191406 102.828125 287.960938 102.621094 C 287.730469 102.414062 287.484375 102.234375 287.21875 102.078125 C 286.953125 101.917969 286.675781 101.789062 286.386719 101.6875 C 286.09375 101.585938 285.796875 101.515625 285.488281 101.472656 C 285.183594 101.429688 284.878906 101.421875 284.570312 101.4375 C 284.261719 101.457031 283.960938 101.507812 283.660156 101.589844 C 283.363281 101.667969 283.078125 101.777344 282.800781 101.914062 Z M 274.824219 87.128906 C 275.007812 86.914062 275.140625 86.648438 275.355469 86.4375 C 276.171875 85.628906 277.117188 85.023438 278.191406 84.613281 C 279.265625 84.207031 280.378906 84.035156 281.523438 84.09375 C 283.066406 84.167969 284.542969 84.519531 285.957031 85.140625 C 287.367188 85.765625 288.621094 86.621094 289.714844 87.710938 C 290.246094 88.222656 290.734375 88.773438 291.179688 89.359375 C 290.660156 88.863281 290.101562 88.417969 289.496094 88.027344 C 288.894531 87.636719 288.257812 87.308594 287.59375 87.039062 C 286.925781 86.773438 286.238281 86.570312 285.535156 86.433594 C 284.828125 86.296875 284.117188 86.226562 283.398438 86.226562 C 282.679688 86.226562 281.96875 86.296875 281.265625 86.433594 C 280.558594 86.570312 279.871094 86.773438 279.207031 87.039062 C 278.539062 87.308594 277.90625 87.636719 277.300781 88.027344 C 276.699219 88.417969 276.136719 88.863281 275.621094 89.359375 C 274.519531 90.523438 273.738281 91.871094 273.28125 93.402344 C 273.109375 92.292969 273.164062 91.195312 273.433594 90.109375 C 273.707031 89.019531 274.179688 88.027344 274.847656 87.128906 Z M 264.183594 83.402344 C 263.230469 83.894531 262.539062 84.628906 262.109375 85.613281 C 261.769531 86.410156 261.652344 87.238281 261.757812 88.097656 C 261.863281 88.957031 262.175781 89.734375 262.695312 90.425781 C 262.191406 90.144531 261.773438 89.773438 261.433594 89.308594 C 261.09375 88.84375 260.867188 88.328125 260.753906 87.765625 C 260.589844 87.144531 260.589844 86.523438 260.753906 85.902344 C 260.996094 85.21875 261.386719 84.625 261.925781 84.132812 C 262.460938 83.636719 263.082031 83.296875 263.785156 83.113281 L 264.398438 82.953125 C 264.707031 82.925781 265.019531 82.925781 265.328125 82.953125 C 264.957031 83.0625 264.601562 83.210938 264.265625 83.402344 Z M 262.21875 70.851562 C 263.667969 69.570312 265.34375 68.746094 267.242188 68.378906 C 267.867188 68.253906 268.496094 68.191406 269.132812 68.191406 C 268.082031 68.449219 267.097656 68.867188 266.1875 69.449219 C 265.277344 70.035156 264.484375 70.75 263.8125 71.597656 C 263.519531 71.929688 263.257812 72.28125 263.027344 72.660156 C 262.792969 73.035156 262.597656 73.429688 262.433594 73.84375 C 262.269531 74.253906 262.144531 74.675781 262.054688 75.109375 C 261.964844 75.542969 261.914062 75.980469 261.902344 76.421875 C 261.886719 76.867188 261.914062 77.304688 261.976562 77.742188 C 262.039062 78.183594 262.140625 78.609375 262.277344 79.03125 C 262.417969 79.453125 262.589844 79.859375 262.796875 80.25 C 263.007812 80.636719 263.246094 81.007812 263.519531 81.355469 C 262.628906 80.9375 261.882812 80.34375 261.273438 79.570312 C 260.664062 78.796875 260.261719 77.929688 260.0625 76.96875 C 259.882812 75.824219 259.992188 74.710938 260.390625 73.621094 C 260.789062 72.535156 261.421875 71.609375 262.296875 70.851562 Z M 254.238281 72.394531 C 254.609375 72.367188 254.984375 72.367188 255.355469 72.394531 C 255.015625 72.46875 254.683594 72.574219 254.359375 72.707031 C 254.039062 72.839844 253.730469 73.003906 253.4375 73.195312 C 253.144531 73.382812 252.871094 73.601562 252.617188 73.839844 C 252.363281 74.078125 252.132812 74.339844 251.925781 74.621094 C 251.71875 74.902344 251.539062 75.203125 251.386719 75.515625 C 251.234375 75.832031 251.113281 76.15625 251.019531 76.492188 C 250.925781 76.828125 250.863281 77.171875 250.832031 77.519531 C 250.800781 77.867188 250.800781 78.214844 250.835938 78.5625 L 251.046875 79.230469 C 251.226562 79.757812 251.480469 80.246094 251.820312 80.691406 C 250.839844 80.207031 250.15625 79.453125 249.769531 78.429688 L 249.585938 77.847656 C 249.574219 77.511719 249.597656 77.179688 249.648438 76.847656 C 249.703125 76.519531 249.785156 76.195312 249.898438 75.878906 C 250.011719 75.566406 250.15625 75.265625 250.324219 74.976562 C 250.496094 74.6875 250.691406 74.417969 250.914062 74.167969 C 251.136719 73.917969 251.378906 73.691406 251.644531 73.484375 C 251.90625 73.28125 252.1875 73.101562 252.488281 72.949219 C 252.785156 72.796875 253.09375 72.675781 253.417969 72.582031 C 253.738281 72.488281 254.066406 72.425781 254.398438 72.394531 Z M 276.417969 109.625 C 274.457031 110.40625 272.589844 111.367188 270.816406 112.507812 C 269.039062 113.652344 267.390625 114.953125 265.871094 116.414062 C 264.347656 117.875 262.976562 119.46875 261.765625 121.195312 C 260.550781 122.917969 259.511719 124.746094 258.652344 126.671875 L 244.558594 117.949219 C 249.585938 113.988281 254.824219 100.476562 249.265625 89.414062 C 250.324219 89.1875 251.292969 88.753906 252.164062 88.113281 C 253.367188 90.484375 254.191406 92.976562 254.644531 95.597656 C 255.097656 98.21875 255.160156 100.84375 254.824219 103.484375 C 256.660156 99.601562 258.359375 95.875 259.875 92.046875 C 260.53125 92.710938 261.25 93.296875 262.03125 93.800781 C 262.636719 94.152344 263.265625 94.453125 263.917969 94.707031 C 263.617188 97.792969 262.925781 100.785156 261.835938 103.691406 C 260.75 106.59375 259.308594 109.308594 257.507812 111.832031 C 258.730469 110.621094 260.058594 109.539062 261.5 108.597656 C 262.9375 107.652344 264.457031 106.863281 266.058594 106.226562 C 267.660156 105.589844 269.304688 105.121094 271 104.820312 C 272.695312 104.519531 274.40625 104.394531 276.125 104.441406 C 275.894531 106.183594 276.042969 107.894531 276.578125 109.574219 Z M 182.300781 155.847656 C 171.824219 163.824219 168.445312 178.082031 172.753906 183.746094 C 177.0625 189.410156 185.464844 183.746094 195.96875 175.765625 C 206.476562 167.789062 215.039062 160.367188 210.730469 154.703125 C 206.421875 149.039062 192.777344 147.84375 182.300781 155.847656 Z M 178.710938 180.046875 C 179.179688 180.703125 179.773438 181.21875 180.492188 181.589844 C 181.664062 182.175781 181.128906 183.078125 178.921875 182.972656 C 178.246094 182.941406 177.609375 182.765625 177.011719 182.445312 C 176.414062 182.121094 175.917969 181.6875 175.519531 181.136719 C 172.089844 176.644531 174.773438 165.339844 183.125 158.984375 L 183.339844 158.824219 C 180.734375 161.71875 178.890625 165.035156 177.804688 168.773438 C 177.460938 169.6875 177.222656 170.628906 177.085938 171.597656 C 176.949219 172.566406 176.921875 173.535156 177 174.511719 C 177.078125 175.484375 177.261719 176.441406 177.550781 177.375 C 177.839844 178.308594 178.226562 179.199219 178.710938 180.046875 Z M 206.050781 176.964844 C 212.085938 184.039062 215.863281 200.367188 200.277344 198.53125 C 192.621094 197.734375 195.542969 187.601562 193.738281 179.621094 L 196.980469 177.175781 C 198.84375 175.738281 200.542969 174.515625 202.140625 173.105469 C 203.546875 174.289062 204.847656 175.574219 206.050781 176.964844 Z M 233.546875 249.617188 C 233.660156 251.488281 233.660156 253.359375 233.546875 255.230469 L 233.28125 258.34375 L 231.339844 255.894531 C 229.8125 253.964844 228.386719 251.960938 227.058594 249.886719 C 225.363281 251.253906 223.589844 252.511719 221.742188 253.660156 L 219.746094 254.859375 L 219.746094 252.542969 C 219.90625 250.09375 220.234375 247.664062 220.730469 245.257812 C 217.40625 245.042969 213.628906 244.351562 213.441406 244.328125 L 210.359375 243.769531 L 213.015625 242.066406 C 214.601562 241.074219 216.242188 240.1875 217.9375 239.40625 C 215.4375 237.144531 213.070312 234.511719 212.617188 234.085938 C 211.605469 234.007812 210.589844 233.992188 209.570312 234.046875 C 208.554688 234.101562 207.546875 234.226562 206.546875 234.417969 C 205.546875 234.609375 204.566406 234.867188 203.601562 235.191406 C 202.636719 235.515625 201.695312 235.902344 200.785156 236.355469 C 199.871094 236.804688 198.992188 237.316406 198.148438 237.886719 C 197.304688 238.457031 196.503906 239.078125 195.746094 239.757812 C 194.984375 240.433594 194.273438 241.160156 193.613281 241.933594 C 192.953125 242.710938 192.347656 243.523438 191.796875 244.378906 C 185.199219 255.335938 190.171875 270.441406 202.910156 278.101562 C 215.648438 285.761719 231.3125 283.074219 237.882812 272.117188 C 238.789062 270.535156 239.484375 268.867188 239.976562 267.113281 C 240.472656 265.359375 240.742188 263.574219 240.792969 261.753906 C 240.84375 259.933594 240.671875 258.132812 240.28125 256.351562 C 239.886719 254.574219 239.28125 252.871094 238.46875 251.242188 C 236.980469 250.710938 235.222656 250.203125 233.546875 249.617188 Z M 199.695312 246.960938 C 198.917969 247.773438 198.234375 248.660156 197.644531 249.617188 C 196.589844 251.390625 195.855469 253.285156 195.441406 255.304688 C 195.027344 257.324219 194.953125 259.355469 195.226562 261.398438 C 196.078125 268.101562 194.292969 268.101562 192.378906 260.230469 C 191.757812 257.839844 191.617188 255.421875 191.957031 252.972656 C 192.300781 250.527344 193.097656 248.238281 194.347656 246.109375 C 194.875 245.265625 195.457031 244.46875 196.101562 243.714844 C 196.355469 243.421875 196.652344 243.183594 196.992188 243 C 197.332031 242.8125 197.691406 242.691406 198.074219 242.632812 C 198.457031 242.574219 198.835938 242.582031 199.214844 242.660156 C 199.59375 242.734375 199.949219 242.875 200.277344 243.078125 C 201.394531 244.007812 200.96875 245.628906 199.695312 247.039062 Z M 201.636719 241.640625 C 200.386719 241.1875 201.289062 239.195312 204.292969 237.785156 C 205.402344 237.183594 206.582031 236.8125 207.832031 236.671875 C 209.085938 236.535156 210.316406 236.640625 211.527344 236.988281 C 212.40625 237.597656 210.808594 238.609375 208.230469 239.859375 C 206.226562 241.171875 204.027344 241.808594 201.636719 241.773438 Z M 233.8125 243.980469 C 236.414062 245.996094 238.886719 248.160156 241.234375 250.46875 C 238.148438 249.699219 235.113281 248.75 232.136719 247.625 C 232.371094 250.078125 232.371094 252.535156 232.136719 254.992188 C 230.335938 252.71875 228.695312 250.332031 227.21875 247.835938 C 225.230469 249.570312 223.101562 251.113281 220.835938 252.464844 C 220.996094 249.582031 221.441406 246.746094 222.164062 243.953125 C 219.253906 243.824219 216.363281 243.496094 213.496094 242.96875 C 215.570312 241.636719 217.75 240.511719 220.039062 239.59375 C 217.65625 237.535156 215.40625 235.347656 213.285156 233.023438 C 216.414062 234.023438 219.484375 235.191406 222.484375 236.535156 C 222.175781 234.167969 222.078125 231.792969 222.191406 229.40625 C 224.15625 231.820312 225.929688 234.363281 227.511719 237.039062 C 229.25 235.878906 231.082031 234.90625 233.015625 234.113281 C 232.839844 236.058594 232.46875 237.964844 231.898438 239.832031 C 234.6875 240.058594 237.453125 240.449219 240.195312 241.003906 C 238.160156 242.230469 236.035156 243.265625 233.8125 244.113281 Z M 278.625 183.132812 C 278.945312 182.15625 279.035156 181.15625 278.890625 180.136719 C 278.746094 179.121094 278.382812 178.183594 277.800781 177.335938 C 276.589844 175.835938 275.054688 174.828125 273.199219 174.304688 C 273.027344 173.503906 272.726562 172.753906 272.304688 172.050781 C 271.878906 171.351562 271.351562 170.738281 270.722656 170.214844 C 270.09375 169.6875 269.398438 169.28125 268.632812 168.988281 C 267.871094 168.695312 267.078125 168.535156 266.257812 168.507812 C 266.988281 168.605469 267.6875 168.808594 268.355469 169.117188 C 269.023438 169.429688 269.628906 169.828125 270.175781 170.324219 C 270.722656 170.816406 271.183594 171.378906 271.558594 172.015625 C 271.933594 172.648438 272.207031 173.320312 272.375 174.039062 C 271.792969 173.878906 271.195312 173.804688 270.589844 173.8125 C 269.984375 173.820312 269.390625 173.910156 268.808594 174.082031 C 268.230469 174.257812 267.683594 174.507812 267.175781 174.835938 C 266.664062 175.160156 266.207031 175.550781 265.808594 176.003906 C 264.851562 178.503906 267.535156 181.324219 269.796875 180.207031 C 270.710938 179.921875 271.492188 179.425781 272.140625 178.714844 C 272.789062 178.007812 273.210938 177.183594 273.414062 176.246094 C 274.546875 176.667969 275.433594 177.394531 276.074219 178.425781 C 276.34375 178.839844 276.554688 179.285156 276.707031 179.757812 C 276.859375 180.230469 276.945312 180.714844 276.964844 181.210938 C 276.984375 181.707031 276.941406 182.199219 276.832031 182.683594 C 276.71875 183.164062 276.546875 183.625 276.3125 184.0625 C 272.75 187.414062 263.199219 196.164062 253.734375 204.007812 C 249.332031 207.574219 244.667969 210.753906 239.746094 213.558594 C 235.8125 215.949219 231.679688 217.925781 227.351562 219.488281 C 230.515625 221.566406 233.972656 222.878906 237.722656 223.421875 C 241.117188 223.894531 244.5 223.84375 247.878906 223.269531 C 251.253906 222.691406 254.464844 221.617188 257.507812 220.046875 C 255.328125 227.652344 254.210938 234.566406 253.46875 237.597656 L 253.8125 237.386719 C 255.28125 236.410156 256.671875 235.339844 257.988281 234.167969 C 257.640625 233.839844 257.363281 233.457031 257.15625 233.027344 C 256.953125 232.59375 256.832031 232.136719 256.800781 231.660156 C 256.765625 231.179688 256.820312 230.710938 256.964844 230.253906 C 257.109375 229.796875 257.332031 229.382812 257.632812 229.007812 C 257.933594 228.636719 258.292969 228.332031 258.707031 228.09375 C 259.125 227.855469 259.570312 227.703125 260.042969 227.632812 C 260.519531 227.5625 260.988281 227.585938 261.457031 227.691406 C 261.921875 227.800781 262.355469 227.992188 262.75 228.265625 C 263.007812 228.472656 263.246094 228.703125 263.46875 228.957031 L 264.503906 227.839844 C 264.128906 227.6875 263.777344 227.503906 263.441406 227.28125 C 263.171875 227.105469 262.925781 226.90625 262.695312 226.683594 C 262.464844 226.460938 262.257812 226.21875 262.074219 225.957031 C 261.890625 225.695312 261.730469 225.421875 261.597656 225.128906 C 261.464844 224.839844 261.359375 224.539062 261.28125 224.230469 C 261.207031 223.917969 261.160156 223.605469 261.140625 223.285156 C 261.121094 222.964844 261.132812 222.648438 261.175781 222.332031 C 261.214844 222.015625 261.285156 221.703125 261.386719 221.402344 C 261.484375 221.097656 261.609375 220.804688 261.765625 220.523438 C 261.941406 220.257812 262.140625 220.011719 262.363281 219.785156 C 262.589844 219.554688 262.832031 219.351562 263.09375 219.167969 C 263.355469 218.984375 263.632812 218.828125 263.921875 218.699219 C 264.214844 218.570312 264.515625 218.464844 264.828125 218.394531 C 265.136719 218.320312 265.453125 218.277344 265.773438 218.261719 C 266.089844 218.25 266.410156 218.265625 266.722656 218.308594 C 267.039062 218.355469 267.347656 218.429688 267.652344 218.535156 C 267.953125 218.640625 268.242188 218.769531 268.519531 218.929688 C 269.230469 219.304688 269.808594 219.828125 270.25 220.5 C 270.636719 219.894531 271.011719 219.285156 271.367188 218.664062 C 270.523438 218.679688 269.734375 218.484375 269 218.078125 C 268.574219 217.855469 268.183594 217.578125 267.835938 217.25 C 267.484375 216.921875 267.183594 216.554688 266.933594 216.144531 C 266.683594 215.734375 266.492188 215.296875 266.359375 214.835938 C 266.226562 214.375 266.15625 213.902344 266.152344 213.425781 C 266.121094 212.769531 266.226562 212.140625 266.472656 211.535156 C 266.621094 211.253906 266.792969 210.984375 266.988281 210.734375 C 267.1875 210.484375 267.40625 210.253906 267.644531 210.042969 C 267.886719 209.832031 268.144531 209.648438 268.417969 209.484375 C 268.695312 209.324219 268.984375 209.1875 269.285156 209.082031 C 269.585938 208.972656 269.890625 208.894531 270.207031 208.84375 C 270.523438 208.796875 270.839844 208.777344 271.160156 208.785156 C 271.480469 208.796875 271.792969 208.835938 272.105469 208.902344 C 272.417969 208.972656 272.71875 209.070312 273.015625 209.195312 C 273.753906 209.480469 274.382812 209.925781 274.902344 210.523438 C 275.113281 209.914062 275.300781 209.273438 275.460938 208.636719 C 274.742188 208.679688 274.050781 208.5625 273.386719 208.292969 C 273.0625 208.210938 272.746094 208.101562 272.445312 207.957031 C 272.140625 207.8125 271.859375 207.636719 271.589844 207.433594 C 271.324219 207.230469 271.082031 207.003906 270.859375 206.75 C 270.640625 206.5 270.449219 206.226562 270.285156 205.933594 C 270.121094 205.640625 269.988281 205.335938 269.886719 205.015625 C 269.785156 204.699219 269.71875 204.371094 269.683594 204.039062 C 269.648438 203.703125 269.648438 203.371094 269.683594 203.039062 C 269.71875 202.703125 269.785156 202.378906 269.886719 202.058594 C 269.988281 201.738281 270.121094 201.433594 270.285156 201.140625 C 270.449219 200.851562 270.640625 200.578125 270.859375 200.324219 C 271.082031 200.070312 271.324219 199.84375 271.589844 199.640625 C 271.859375 199.4375 272.144531 199.265625 272.445312 199.121094 C 272.746094 198.976562 273.0625 198.867188 273.386719 198.785156 C 273.710938 198.707031 274.042969 198.660156 274.378906 198.648438 C 274.710938 198.636719 275.046875 198.660156 275.375 198.714844 C 275.707031 198.773438 276.027344 198.859375 276.339844 198.984375 L 277.214844 199.277344 L 277.375 197.46875 L 276.683594 197.46875 C 276.214844 197.375 275.777344 197.199219 275.371094 196.9375 C 274.96875 196.679688 274.625 196.355469 274.347656 195.964844 C 274.066406 195.574219 273.867188 195.148438 273.75 194.679688 C 273.632812 194.214844 273.609375 193.746094 273.671875 193.269531 C 273.734375 192.792969 273.878906 192.347656 274.113281 191.925781 C 274.347656 191.507812 274.648438 191.144531 275.019531 190.839844 C 275.394531 190.535156 275.808594 190.3125 276.265625 190.164062 C 276.722656 190.019531 277.1875 189.960938 277.667969 189.996094 C 277.667969 187.839844 277.667969 186.113281 277.429688 184.996094 C 277.429688 184.753906 277.722656 184.515625 277.828125 184.277344 L 278.386719 183.425781 C 278.972656 185.605469 279.824219 202.335938 275.0625 213.476562 C 274.796875 214.117188 274.503906 214.78125 274.183594 215.390625 C 269.875 227.015625 253.359375 240.3125 252.75 239.007812 C 252.429688 240.230469 272.589844 236.640625 281.046875 218.132812 C 281.769531 216.582031 282.371094 214.984375 282.855469 213.34375 C 283.59375 210.8125 284.054688 208.234375 284.246094 205.601562 C 284.4375 202.972656 284.347656 200.351562 283.980469 197.742188 C 283.613281 195.128906 282.976562 192.585938 282.070312 190.113281 C 281.164062 187.636719 280.007812 185.28125 278.597656 183.054688 Z M 267.191406 176.457031 C 267.960938 175.898438 268.820312 175.5625 269.765625 175.449219 C 270.710938 175.335938 271.628906 175.457031 272.507812 175.820312 C 272.296875 178.929688 266.234375 180.445312 267.191406 176.457031 Z M 278.304688 183.238281 C 278.304688 183.238281 278.332031 183.1875 278.304688 183.238281 Z M 294.6875 150.128906 C 293.40625 151.921875 291.917969 153.53125 290.234375 154.957031 C 288.550781 156.378906 286.71875 157.578125 284.734375 158.542969 C 282.753906 159.511719 280.679688 160.222656 278.523438 160.675781 C 276.363281 161.128906 274.179688 161.308594 271.976562 161.21875 C 274.980469 159.117188 277.933594 156.9375 280.753906 154.542969 C 285.398438 150.765625 289.300781 146.335938 292.453125 141.246094 C 288.917969 146.050781 284.691406 150.136719 279.769531 153.507812 C 276.949219 155.582031 274 157.441406 270.992188 159.277344 C 271.128906 157.148438 271.492188 155.0625 272.089844 153.015625 C 272.6875 150.972656 273.503906 149.015625 274.535156 147.148438 C 275.570312 145.285156 276.792969 143.554688 278.210938 141.964844 C 279.628906 140.371094 281.203125 138.953125 282.933594 137.710938 C 285.335938 136.144531 287.90625 134.929688 290.644531 134.066406 C 293.378906 133.203125 296.183594 132.726562 299.050781 132.628906 C 299.261719 135.703125 298.996094 138.734375 298.25 141.722656 C 297.507812 144.714844 296.320312 147.515625 294.6875 150.128906 Z M 104.671875 68.484375 C 103.65625 65.800781 103.023438 63.027344 102.765625 60.171875 C 102.507812 57.3125 102.636719 54.472656 103.15625 51.652344 C 106.199219 52.09375 109.101562 52.996094 111.859375 54.359375 C 114.617188 55.722656 117.097656 57.480469 119.296875 59.628906 C 120.777344 61.265625 122.03125 63.058594 123.0625 65.007812 C 124.09375 66.957031 124.871094 69.003906 125.390625 71.144531 C 125.914062 73.289062 126.164062 75.460938 126.148438 77.667969 C 126.128906 79.871094 125.839844 82.042969 125.28125 84.175781 C 123.871094 80.769531 122.355469 77.421875 120.65625 74.175781 C 117.96875 68.855469 114.492188 64.113281 110.230469 59.949219 C 114.171875 64.367188 117.277344 69.3125 119.539062 74.789062 C 120.949219 77.980469 122.199219 81.277344 123.289062 84.601562 C 121.234375 84.03125 119.269531 83.246094 117.394531 82.238281 C 115.515625 81.234375 113.773438 80.035156 112.164062 78.640625 C 110.554688 77.246094 109.117188 75.695312 107.851562 73.980469 C 106.589844 72.265625 105.527344 70.433594 104.671875 68.484375 Z M 179.722656 193.636719 C 181.289062 196.292969 182.40625 199.121094 183.082031 202.128906 C 183.753906 205.136719 183.945312 208.175781 183.65625 211.242188 C 183.554688 211.976562 183.414062 212.707031 183.230469 213.425781 C 182.742188 215.378906 182.039062 217.257812 181.132812 219.058594 C 180.222656 220.855469 179.125 222.535156 177.839844 224.089844 C 176.558594 225.644531 175.117188 227.039062 173.523438 228.273438 C 171.929688 229.507812 170.21875 230.550781 168.390625 231.402344 C 170.121094 228.15625 171.796875 224.859375 173.230469 221.480469 C 174.335938 218.878906 175.285156 216.21875 176.078125 213.503906 C 176.925781 210.554688 177.464844 207.546875 177.699219 204.488281 C 177.25 207.585938 176.480469 210.597656 175.386719 213.53125 C 174.421875 216.109375 173.3125 218.628906 172.0625 221.082031 C 170.492188 224.167969 168.683594 227.199219 166.742188 230.179688 C 165.660156 227.546875 164.964844 224.8125 164.652344 221.984375 C 164.339844 219.152344 164.425781 216.335938 164.90625 213.53125 C 165.355469 210.726562 166.242188 208.066406 167.566406 205.550781 C 169.003906 203.042969 170.753906 200.777344 172.820312 198.753906 C 174.882812 196.730469 177.183594 195.023438 179.722656 193.636719 Z M 213.601562 80.027344 C 212.761719 78.070312 212.144531 76.042969 211.753906 73.945312 C 211.363281 71.851562 211.210938 69.738281 211.289062 67.609375 C 211.371094 65.480469 211.683594 63.382812 212.230469 61.324219 C 212.777344 59.265625 213.546875 57.289062 214.53125 55.398438 C 215.964844 52.917969 217.703125 50.675781 219.746094 48.671875 C 221.792969 46.664062 224.070312 44.972656 226.582031 43.59375 C 228.148438 46.246094 229.265625 49.078125 229.9375 52.085938 C 230.613281 55.089844 230.804688 58.128906 230.515625 61.199219 C 230.179688 63.378906 229.582031 65.488281 228.722656 67.519531 C 227.863281 69.550781 226.765625 71.449219 225.433594 73.207031 C 224.101562 74.96875 222.574219 76.535156 220.847656 77.914062 C 219.125 79.292969 217.261719 80.441406 215.25 81.355469 C 217.007812 78.113281 218.65625 74.8125 220.089844 71.4375 C 222.519531 65.992188 224.007812 60.300781 224.558594 54.363281 C 223.582031 60.207031 221.691406 65.738281 218.894531 70.957031 C 217.273438 74.015625 215.464844 77.046875 213.601562 80.027344 Z M 107.675781 187.839844 C 105.464844 187.800781 103.292969 187.488281 101.160156 186.90625 C 99.027344 186.320312 96.996094 185.484375 95.074219 184.398438 C 93.148438 183.308594 91.386719 182 89.789062 180.472656 C 88.191406 178.941406 86.804688 177.242188 85.628906 175.367188 C 84.140625 172.671875 83.109375 169.808594 82.535156 166.78125 C 81.964844 163.753906 81.878906 160.710938 82.28125 157.65625 C 85.144531 157.90625 87.921875 158.542969 90.609375 159.5625 C 93.296875 160.585938 95.792969 161.953125 98.101562 163.664062 C 99.761719 165.003906 101.253906 166.511719 102.578125 168.183594 C 103.898438 169.855469 105.019531 171.652344 105.941406 173.578125 C 106.859375 175.5 107.558594 177.503906 108.03125 179.582031 C 108.503906 181.660156 108.738281 183.765625 108.742188 185.898438 C 105.867188 183.878906 103.023438 181.828125 100.335938 179.597656 C 95.695312 175.925781 91.777344 171.597656 88.582031 166.617188 C 91.417969 171.863281 95.035156 176.5 99.433594 180.527344 C 101.960938 183.1875 104.777344 185.554688 107.675781 187.839844 Z M 234.214844 187.839844 C 233.585938 186.058594 233.273438 184.222656 233.273438 182.335938 C 233.273438 180.445312 233.585938 178.613281 234.214844 176.832031 C 235.945312 177.054688 237.609375 177.523438 239.203125 178.238281 C 240.800781 178.953125 242.253906 179.886719 243.574219 181.03125 C 244.476562 181.933594 245.253906 182.933594 245.90625 184.03125 C 246.558594 185.128906 247.0625 186.289062 247.425781 187.511719 C 247.785156 188.738281 247.988281 189.988281 248.035156 191.261719 C 248.078125 192.539062 247.96875 193.800781 247.695312 195.046875 C 246.101562 193.71875 244.53125 192.386719 243.070312 190.925781 C 240.578125 188.511719 238.625 185.71875 237.21875 182.546875 C 238.046875 185.875 239.578125 188.835938 241.820312 191.429688 C 243.203125 193.078125 245.4375 194.621094 247.003906 196.136719 C 245.65625 196.109375 244.339844 195.894531 243.050781 195.496094 C 241.761719 195.097656 240.554688 194.53125 239.425781 193.796875 C 238.292969 193.058594 237.285156 192.183594 236.402344 191.167969 C 235.515625 190.152344 234.785156 189.035156 234.214844 187.8125 Z M 182.378906 28.433594 C 181.757812 26.648438 181.449219 24.808594 181.449219 22.914062 C 181.449219 21.023438 181.757812 19.183594 182.378906 17.398438 C 184.113281 17.617188 185.777344 18.085938 187.375 18.800781 C 188.96875 19.515625 190.425781 20.449219 191.742188 21.597656 C 192.644531 22.5 193.425781 23.5 194.078125 24.597656 C 194.730469 25.695312 195.234375 26.855469 195.59375 28.078125 C 195.957031 29.304688 196.160156 30.554688 196.203125 31.828125 C 196.25 33.105469 196.136719 34.367188 195.863281 35.613281 C 194.242188 34.316406 192.691406 32.945312 191.210938 31.492188 C 188.679688 29.09375 186.695312 26.3125 185.253906 23.140625 C 186.078125 26.46875 187.613281 29.429688 189.855469 32.023438 C 191.542969 33.6875 193.316406 35.253906 195.171875 36.730469 C 193.824219 36.703125 192.507812 36.492188 191.222656 36.097656 C 189.933594 35.703125 188.726562 35.136719 187.59375 34.402344 C 186.464844 33.671875 185.457031 32.796875 184.570312 31.78125 C 183.683594 30.769531 182.953125 29.652344 182.378906 28.433594 Z M 113.101562 101.035156 C 112.382812 101.269531 111.691406 101.570312 111.03125 101.9375 C 110.371094 102.304688 109.753906 102.734375 109.175781 103.222656 C 108.601562 103.714844 108.078125 104.253906 107.609375 104.847656 C 107.136719 105.441406 106.730469 106.070312 106.382812 106.746094 C 106.039062 107.417969 105.761719 108.117188 105.554688 108.84375 C 105.347656 109.570312 105.210938 110.3125 105.148438 111.066406 C 105.085938 111.820312 105.097656 112.570312 105.183594 113.324219 C 105.269531 114.074219 105.425781 114.808594 105.65625 115.53125 C 105.65625 115.957031 105.949219 116.328125 106.109375 116.726562 L 106.402344 117.339844 C 108.742188 122.65625 109.058594 123.164062 106.933594 133.296875 C 106.804688 133.902344 106.707031 134.511719 106.640625 135.128906 C 106.574219 135.742188 106.539062 136.363281 106.535156 136.980469 C 106.535156 137.601562 106.5625 138.21875 106.621094 138.835938 C 106.683594 139.449219 106.777344 140.0625 106.898438 140.667969 C 107.023438 141.277344 107.175781 141.875 107.359375 142.46875 C 107.546875 143.058594 107.761719 143.636719 108.003906 144.207031 C 108.25 144.777344 108.523438 145.332031 108.824219 145.875 C 109.125 146.414062 109.453125 146.9375 109.808594 147.445312 C 110.164062 147.953125 110.542969 148.441406 110.949219 148.910156 C 111.355469 149.378906 111.78125 149.824219 112.234375 150.25 C 112.683594 150.675781 113.15625 151.074219 113.648438 151.449219 C 114.140625 151.828125 114.648438 152.175781 115.179688 152.5 C 115.707031 152.824219 116.25 153.121094 116.808594 153.390625 C 117.367188 153.65625 117.9375 153.894531 118.519531 154.105469 C 119.101562 154.316406 119.695312 154.496094 120.296875 154.644531 C 120.898438 154.792969 121.503906 154.910156 122.117188 154.996094 C 120.902344 152.777344 120.261719 150.398438 120.203125 147.867188 C 120.203125 141.113281 123.792969 136.460938 127.382812 131.914062 C 128.207031 130.875 129.03125 129.839844 129.828125 128.773438 C 131.050781 126.90625 131.714844 124.859375 131.824219 122.632812 C 131.976562 121.464844 132.199219 120.3125 132.488281 119.171875 C 131.265625 118.035156 130.28125 116.71875 129.539062 115.21875 C 128.796875 113.722656 128.34375 112.140625 128.179688 110.476562 L 128.046875 109.785156 C 127.96875 109.371094 127.863281 108.960938 127.730469 108.5625 C 127.5 107.832031 127.203125 107.128906 126.835938 106.460938 C 126.46875 105.789062 126.039062 105.160156 125.546875 104.574219 C 125.054688 103.988281 124.507812 103.457031 123.910156 102.976562 C 123.3125 102.5 122.671875 102.085938 121.992188 101.738281 C 121.3125 101.386719 120.601562 101.105469 119.867188 100.898438 C 119.128906 100.6875 118.378906 100.554688 117.617188 100.492188 C 116.855469 100.433594 116.09375 100.449219 115.332031 100.539062 C 114.574219 100.632812 113.828125 100.796875 113.101562 101.035156 Z M 112.730469 144.652344 C 112.96875 145.410156 113.261719 146.144531 113.609375 146.859375 C 114.191406 148.027344 113.207031 147.683594 111.824219 145.6875 C 110.671875 143.9375 109.902344 142.03125 109.511719 139.96875 C 109.117188 137.910156 109.136719 135.851562 109.566406 133.800781 C 111.933594 122.472656 111.292969 121.671875 108.582031 115.636719 C 108.449219 115.339844 108.335938 115.039062 108.234375 114.730469 C 107.601562 112.746094 107.65625 110.777344 108.394531 108.828125 C 109.589844 105.71875 110.839844 106.167969 110.417969 108.828125 C 110.152344 110.445312 110.277344 112.03125 110.789062 113.589844 C 110.898438 113.945312 111.03125 114.289062 111.1875 114.625 C 114.300781 121.59375 115.042969 122.605469 112.304688 135.582031 C 111.660156 138.640625 111.800781 141.664062 112.730469 144.652344 Z M 123.582031 143.773438 C 123.480469 144.460938 123.421875 145.148438 123.402344 145.839844 C 123.382812 146.535156 123.402344 147.226562 123.460938 147.914062 C 123.523438 148.605469 123.621094 149.289062 123.757812 149.96875 C 123.894531 150.648438 124.074219 151.316406 124.285156 151.976562 C 124.5 152.632812 124.753906 153.277344 125.039062 153.910156 C 125.328125 154.539062 125.652344 155.152344 126.007812 155.742188 C 126.367188 156.335938 126.757812 156.90625 127.183594 157.457031 C 127.605469 158.003906 128.058594 158.527344 128.542969 159.023438 C 129.023438 159.519531 129.535156 159.988281 130.070312 160.425781 C 130.609375 160.863281 131.167969 161.269531 131.75 161.644531 C 132.332031 162.019531 132.9375 162.359375 133.558594 162.664062 C 134.179688 162.96875 134.816406 163.238281 135.46875 163.46875 C 136.121094 163.703125 136.785156 163.894531 137.460938 164.050781 C 138.136719 164.207031 138.820312 164.324219 139.507812 164.402344 C 140.195312 164.484375 140.886719 164.519531 141.578125 164.519531 C 142.269531 164.519531 142.960938 164.480469 143.648438 164.398438 C 144.339844 164.320312 145.019531 164.203125 145.695312 164.042969 C 146.367188 163.886719 147.03125 163.691406 147.683594 163.457031 C 148.335938 163.222656 148.972656 162.953125 149.59375 162.648438 C 150.214844 162.339844 150.816406 162 151.402344 161.625 C 151.984375 161.25 152.542969 160.839844 153.078125 160.402344 C 153.613281 159.960938 154.121094 159.492188 154.605469 158.996094 C 155.085938 158.5 155.539062 157.976562 155.960938 157.425781 C 156.382812 156.875 156.773438 156.304688 157.128906 155.710938 C 157.484375 155.117188 157.808594 154.503906 158.09375 153.875 C 158.382812 153.242188 158.632812 152.597656 158.84375 151.941406 C 159.058594 151.28125 159.230469 150.609375 159.367188 149.933594 C 159.503906 149.253906 159.601562 148.566406 159.660156 147.878906 C 159.71875 147.1875 159.738281 146.496094 159.714844 145.804688 C 159.695312 145.109375 159.632812 144.421875 159.535156 143.734375 C 159.433594 143.050781 159.296875 142.371094 159.117188 141.703125 C 158.941406 141.035156 158.726562 140.375 158.472656 139.730469 C 154.722656 130.15625 154.910156 129.4375 156.34375 123.960938 L 156.503906 123.296875 C 156.503906 122.898438 156.691406 122.496094 156.769531 122.074219 C 156.917969 121.308594 156.984375 120.535156 156.972656 119.757812 C 156.964844 118.980469 156.875 118.207031 156.710938 117.449219 C 156.542969 116.6875 156.304688 115.949219 155.988281 115.238281 C 155.671875 114.527344 155.289062 113.851562 154.839844 113.21875 C 154.386719 112.582031 153.878906 112 153.308594 111.46875 C 152.738281 110.9375 152.121094 110.46875 151.457031 110.0625 C 150.792969 109.65625 150.097656 109.320312 149.363281 109.054688 C 148.632812 108.789062 147.878906 108.601562 147.109375 108.488281 C 146.339844 108.375 145.566406 108.339844 144.789062 108.382812 C 144.011719 108.425781 143.246094 108.546875 142.492188 108.746094 C 141.738281 108.945312 141.015625 109.214844 140.316406 109.5625 C 139.617188 109.90625 138.960938 110.320312 138.347656 110.796875 C 137.734375 111.273438 137.171875 111.808594 136.664062 112.402344 C 136.160156 112.992188 135.71875 113.628906 135.339844 114.308594 C 134.960938 114.992188 134.65625 115.703125 134.421875 116.445312 C 134.1875 117.1875 134.03125 117.945312 133.953125 118.722656 C 133.953125 119.148438 133.953125 119.574219 133.953125 119.972656 L 133.953125 120.664062 C 133.765625 126.328125 133.738281 127.046875 127.382812 135.15625 C 125.347656 137.691406 124.082031 140.5625 123.582031 143.773438 Z M 136.503906 120.105469 C 136.480469 119.785156 136.480469 119.464844 136.503906 119.148438 C 136.59375 118.570312 136.734375 118.007812 136.933594 117.460938 C 137.128906 116.910156 137.378906 116.386719 137.679688 115.886719 C 137.980469 115.386719 138.328125 114.921875 138.722656 114.492188 C 139.113281 114.058594 139.542969 113.671875 140.015625 113.324219 C 140.484375 112.980469 140.980469 112.683594 141.511719 112.433594 C 142.039062 112.1875 142.585938 111.992188 143.152344 111.851562 C 143.71875 111.710938 144.292969 111.628906 144.875 111.601562 C 145.457031 111.574219 146.035156 111.605469 146.613281 111.691406 C 147.1875 111.78125 147.75 111.921875 148.300781 112.121094 C 148.847656 112.320312 149.371094 112.570312 149.871094 112.871094 C 150.371094 113.171875 150.835938 113.519531 151.265625 113.914062 C 151.695312 114.304688 152.085938 114.738281 152.429688 115.207031 C 152.777344 115.675781 153.074219 116.175781 153.320312 116.703125 C 153.566406 117.230469 153.761719 117.777344 153.902344 118.34375 C 154.039062 118.910156 154.125 119.484375 154.148438 120.066406 C 154.175781 120.652344 154.144531 121.230469 154.058594 121.804688 C 154.011719 122.128906 153.953125 122.449219 153.871094 122.765625 C 152.195312 129.171875 151.71875 130.050781 155.945312 140.847656 C 156.164062 141.398438 156.347656 141.960938 156.503906 142.535156 C 156.65625 143.109375 156.777344 143.6875 156.863281 144.277344 C 156.949219 144.863281 157.003906 145.453125 157.019531 146.046875 C 157.039062 146.640625 157.027344 147.230469 156.976562 147.824219 C 156.929688 148.414062 156.84375 149 156.730469 149.582031 C 156.613281 150.164062 156.464844 150.738281 156.28125 151.304688 C 156.101562 151.867188 155.886719 152.421875 155.644531 152.960938 C 155.398438 153.5 155.121094 154.027344 154.816406 154.535156 C 154.511719 155.042969 154.179688 155.535156 153.816406 156.003906 C 153.457031 156.476562 153.070312 156.925781 152.65625 157.351562 C 152.242188 157.777344 151.808594 158.179688 151.347656 158.554688 C 150.890625 158.929688 150.410156 159.28125 149.914062 159.601562 C 149.414062 159.921875 148.898438 160.214844 148.367188 160.476562 C 147.832031 160.738281 147.289062 160.96875 146.730469 161.171875 C 146.171875 161.371094 145.601562 161.539062 145.023438 161.671875 C 144.445312 161.808594 143.863281 161.910156 143.273438 161.976562 C 142.683594 162.042969 142.09375 162.078125 141.5 162.078125 C 140.90625 162.078125 140.3125 162.042969 139.726562 161.976562 C 139.136719 161.910156 138.550781 161.808594 137.972656 161.671875 C 137.394531 161.539062 136.828125 161.371094 136.269531 161.171875 C 135.710938 160.972656 135.164062 160.742188 134.632812 160.476562 C 134.101562 160.214844 133.585938 159.925781 133.085938 159.601562 C 132.585938 159.28125 132.109375 158.933594 131.648438 158.554688 C 131.191406 158.179688 130.753906 157.777344 130.339844 157.351562 C 129.929688 156.925781 129.542969 156.476562 129.179688 156.007812 C 128.820312 155.535156 128.484375 155.046875 128.179688 154.539062 C 127.875 154.027344 127.597656 153.503906 127.355469 152.964844 C 127.109375 152.421875 126.894531 151.871094 126.714844 151.304688 C 126.53125 150.742188 126.382812 150.167969 126.265625 149.585938 C 126.152344 149.003906 126.070312 148.417969 126.019531 147.824219 C 125.972656 147.234375 125.957031 146.640625 125.976562 146.050781 C 125.992188 145.457031 126.046875 144.867188 126.132812 144.277344 C 126.527344 141.554688 127.582031 139.117188 129.296875 136.964844 C 136.480469 127.710938 136.160156 126.699219 136.503906 120.105469 Z M 140.519531 157.335938 C 146.160156 158.1875 151.503906 153.402344 152.488281 146.699219 C 153.472656 139.996094 149.828125 133.878906 144.109375 133.054688 C 138.394531 132.230469 133.128906 136.992188 132.144531 143.695312 C 131.160156 150.394531 134.910156 156.511719 140.519531 157.308594 Z M 141.210938 135.183594 C 142.097656 135.011719 142.984375 135.011719 143.871094 135.183594 C 144.335938 135.253906 144.789062 135.371094 145.226562 135.527344 C 145.648438 135.664062 146.039062 135.859375 146.398438 136.113281 C 145.511719 135.960938 144.625 135.960938 143.738281 136.113281 C 142.5625 136.488281 141.355469 136.636719 140.121094 136.566406 C 139.351562 136.246094 139.828125 135.449219 141.210938 135.15625 Z M 134.296875 148.480469 C 133.882812 146.921875 133.792969 145.34375 134.03125 143.746094 C 134.203125 142.558594 134.550781 141.425781 135.070312 140.34375 C 135.921875 138.5625 137.730469 137.3125 138.445312 137.390625 C 139.164062 137.46875 137.914062 139.359375 136.851562 141.433594 C 136.179688 142.703125 135.746094 144.050781 135.546875 145.476562 C 135.375 146.691406 135.375 147.90625 135.546875 149.117188 C 135.8125 151.140625 134.988281 151.035156 134.296875 148.507812 Z M 142.59375 70.585938 C 152.566406 46.652344 176.796875 59.65625 186.902344 71.171875 C 190.027344 74.960938 192.59375 79.097656 194.609375 83.578125 C 196.621094 88.058594 198.003906 92.726562 198.761719 97.578125 C 197.632812 98.308594 196.691406 99.234375 195.941406 100.351562 C 195.195312 101.46875 194.699219 102.691406 194.453125 104.015625 C 191.820312 102.472656 189.046875 101.25 186.128906 100.34375 L 184.535156 99.894531 L 184.347656 101.542969 C 184.097656 103.453125 184.277344 105.324219 184.878906 107.152344 C 184.589844 107.152344 184.269531 107.152344 183.976562 107.152344 C 182.648438 105.71875 181.316406 104.148438 180.199219 102.683594 L 179.296875 101.59375 C 177.152344 98.984375 174.757812 96.625 172.113281 94.519531 C 167.308594 90.832031 162.230469 87.570312 156.875 84.734375 L 156.371094 84.46875 C 144.589844 77.820312 145.917969 71.570312 147.914062 67.472656 C 148.679688 65.945312 149.566406 64.492188 150.574219 63.113281 C 148.054688 65.472656 146.175781 68.265625 144.9375 71.488281 C 143.285156 75.480469 142.410156 81.460938 153.925781 87.019531 L 154.402344 87.261719 C 159.648438 89.59375 164.648438 92.367188 169.402344 95.585938 C 172.023438 97.417969 174.414062 99.511719 176.582031 101.859375 L 177.515625 102.84375 C 178.976562 104.484375 180.519531 106.042969 182.140625 107.523438 C 181.230469 107.761719 180.34375 108.070312 179.480469 108.457031 C 177.832031 106.859375 176.265625 105.105469 174.828125 103.5625 C 172.753906 101.34375 170.476562 99.359375 167.992188 97.605469 C 163.171875 94.371094 158.109375 91.570312 152.808594 89.203125 C 145.121094 85.476562 138.820312 79.789062 142.59375 70.585938 Z M 199.507812 98.75 C 200.117188 101.070312 200.515625 103.429688 200.703125 105.824219 C 200.621094 107.875 200.195312 109.851562 199.425781 111.753906 C 199.113281 112.304688 198.871094 112.886719 198.707031 113.5 C 198.542969 114.113281 198.460938 114.734375 198.460938 115.371094 C 198.460938 116.003906 198.542969 116.628906 198.707031 117.242188 C 198.871094 117.855469 199.113281 118.4375 199.425781 118.988281 L 196.316406 120.53125 C 195.519531 118.082031 193.230469 117.472656 190.4375 116.992188 C 188.226562 116.484375 186.136719 115.671875 184.167969 114.546875 C 182.199219 113.425781 180.433594 112.042969 178.871094 110.398438 C 180.890625 109.015625 185.917969 107.523438 187.992188 109.519531 C 187.507812 109.003906 187.085938 108.441406 186.734375 107.824219 C 186.382812 107.210938 186.109375 106.566406 185.910156 105.886719 C 185.710938 105.207031 185.59375 104.511719 185.558594 103.804688 C 185.523438 103.097656 185.574219 102.398438 185.703125 101.699219 C 187.273438 102.152344 195.359375 105.210938 195.410156 107.019531 C 195.410156 104.332031 196.902344 99.839844 199.507812 98.644531 Z M 140.28125 258.023438 L 141.796875 259.113281 Z M 148.683594 263.875 L 148.898438 263.875 Z M 145.28125 261.585938 L 145.894531 262.011719 Z M 128.3125 248.769531 L 129.882812 250.070312 Z M 117.835938 238.128906 L 118.023438 238.371094 Z M 132.464844 252.171875 L 133.847656 253.234375 Z M 154.242188 267.382812 L 154.535156 267.542969 Z M 144.402344 261.027344 L 145.28125 261.667969 L 144.402344 261.054688 Z M 140.203125 258.050781 Z M 139.113281 226.136719 C 148.527344 235.496094 172.089844 266.558594 167.40625 271.347656 C 165.734375 273.023438 160.734375 271.105469 154.535156 267.570312 C 156.210938 266 157.808594 264.566406 158.949219 263.394531 C 156.914062 264.320312 154.996094 265.457031 153.207031 266.800781 L 150.121094 264.726562 C 152.167969 262.730469 154.242188 260.921875 155.625 259.40625 C 153.140625 260.554688 150.828125 261.980469 148.683594 263.6875 L 145.894531 262.066406 C 148.207031 259.726562 150.707031 257.570312 152.300781 255.921875 C 149.414062 257.257812 146.757812 258.949219 144.324219 261 C 143.445312 260.417969 142.570312 259.804688 141.664062 259.167969 C 144.136719 256.507812 146.984375 254.058594 148.84375 252.226562 C 145.636719 253.726562 142.710938 255.660156 140.070312 258.023438 L 137.648438 256.214844 C 140.308594 253.316406 143.578125 250.523438 145.628906 248.503906 C 142.140625 250.164062 138.984375 252.308594 136.160156 254.9375 L 133.847656 253.128906 C 136.503906 249.992188 140.226562 246.90625 142.355469 244.753906 C 138.5625 246.535156 135.167969 248.894531 132.171875 251.828125 L 130.015625 250.070312 C 132.867188 246.914062 135.875 243.90625 139.03125 241.054688 C 135.042969 242.972656 131.496094 245.507812 128.394531 248.660156 C 127.675781 248.050781 126.984375 247.464844 126.347656 246.878906 C 129.308594 243.511719 132.453125 240.332031 135.789062 237.332031 C 131.597656 239.328125 127.882812 241.984375 124.644531 245.3125 C 123.925781 244.671875 123.3125 244.085938 122.730469 243.527344 C 125.75 239.992188 128.992188 236.675781 132.464844 233.582031 C 128.175781 235.648438 124.378906 238.394531 121.082031 241.828125 L 122.277344 243.078125 C 121.1875 241.988281 120.203125 240.921875 119.351562 239.886719 C 122.375 236.316406 125.636719 232.984375 129.136719 229.886719 C 124.917969 231.875 121.179688 234.53125 117.914062 237.863281 C 116.714844 236.359375 115.824219 234.691406 115.242188 232.859375 C 114.65625 231.023438 114.425781 229.148438 114.539062 227.226562 C 111.304688 226.335938 108.015625 225.945312 104.664062 226.050781 C 101.316406 226.152344 98.054688 226.75 94.886719 227.839844 L 93.609375 224.566406 C 98.710938 222.804688 103.949219 222.175781 109.324219 222.679688 C 105.601562 219.683594 101.378906 217.785156 96.667969 216.988281 L 96.984375 213.425781 C 99.628906 213.84375 102.175781 214.589844 104.625 215.664062 C 107.074219 216.734375 109.351562 218.097656 111.453125 219.753906 C 109.726562 217.679688 108.15625 215.523438 106.71875 213.425781 C 104.804688 210.550781 103.183594 207.785156 101.984375 205.445312 L 105.152344 203.742188 C 106.921875 207.070312 108.898438 210.273438 111.082031 213.34375 C 113 216.046875 115.117188 218.582031 117.4375 220.949219 L 117.675781 221.191406 C 116.046875 218.738281 114.683594 216.152344 113.582031 213.425781 C 112.011719 209.777344 111.070312 205.972656 110.761719 202.015625 L 114.351562 202.015625 C 114.730469 206.007812 115.796875 209.8125 117.542969 213.425781 C 117.96875 214.382812 118.449219 215.339844 118.953125 216.269531 C 118.714844 215.3125 118.5 214.382812 118.339844 213.425781 C 118.328125 213.28125 118.328125 213.140625 118.339844 213 C 117.828125 210.503906 117.730469 207.992188 118.046875 205.464844 C 118.367188 202.9375 119.085938 200.527344 120.203125 198.238281 L 123.289062 200.074219 C 122.402344 201.992188 121.839844 204.003906 121.601562 206.105469 C 121.359375 208.203125 121.453125 210.289062 121.878906 212.359375 L 122.039062 213.316406 C 122.34375 215.039062 122.8125 216.714844 123.449219 218.34375 C 127.597656 217.917969 132.996094 220.019531 139.113281 226.136719 Z M 153.207031 266.691406 C 153.285156 266.753906 153.375 266.796875 153.472656 266.824219 Z M 149.933594 264.726562 L 150.121094 264.726562 C 150.058594 264.710938 149.996094 264.710938 149.933594 264.726562 Z M 149.933594 264.726562 " fill-opacity="1" fill-rule="nonzero"/></g></svg>